# xmcd CD database file
#
# Track frame offsets:
#	150
#	21712
#	42437
#	60625
#	79912
#	95612
#	111887
#	134725
#	156550
#	176350
#	199350
#	220562
#	239925
#	253750
#	278087
#	294212
#	311500
#
# Disc length: 4364 seconds
#
# Revision: 0
# Processed by: cddbd v1.5.1PL0 Copyright (c) Steve Scherf et al.
# Submitted via: CDex 1.51
#
DISCID=0b110a11
DTITLE=Various Artist - The Blues 2
DYEAR=1991
DGENRE=Blues
TTITLE0=B.B. King - When Love Comes to Town
TTITLE1=John Lee Hooker with Robert Cray - Mr. Lucky
TTITLE2=Johnny Winter - Barefootin
TTITLE3=Sanne - Where Blue Begins
TTITLE4=Gary Moore - Too Tired
TTITLE5=The Commitments - Treat Her Right
TTITLE6=Marcia Ball, Lou Ann Barton and Angela Strehli - Love, Sweet Love
TTITLE7=The Jeff Healy Band - Roadhouse Blues
TTITLE8=Lonnie Mack - Ain't Nobody
TTITLE9=Nine Below Zero - On the Road Again
TTITLE10=Buddy Guy with Jeff Beck - Mustang Sally
TTITLE11=Tah Mahal - Don't Call Us
TTITLE12=Albert Collins - Travellin South
TTITLE13=The Blues Band - Fat City
TTITLE14=The Paladines - Follow Your Heart
TTITLE15=William Clarke - Lollipop Mama
TTITLE16=Chris Daniels and The Kings - Roll Over Bethoven
EXTD=YEAR: 1991
EXTT0=
EXTT1=
EXTT2=
EXTT3=
EXTT4=
EXTT5=
EXTT6=
EXTT7=
EXTT8=
EXTT9=
EXTT10=
EXTT11=
EXTT12=
EXTT13=
EXTT14=
EXTT15=
EXTT16=
PLAYORDER=
